<mxfile host="app.diagrams.net" modified="2022-02-16T15:02:02.654Z" agent="5.0 (X11; Linux x86_64) AppleWebKit/537.36 (KHTML, like Gecko) Chrome/98.0.4758.87 Safari/537.36" etag="_d6Md3-jQBaRpPbGNmMl" version="16.5.3" type="github">
  <diagram id="1RFPZSgYPdv8vxJ3tSGE" name="Page-1">
    <mxGraphModel dx="1074" dy="1044" grid="1" gridSize="10" guides="1" tooltips="1" connect="1" arrows="1" fold="1" page="1" pageScale="1" pageWidth="850" pageHeight="1100" math="1" shadow="0">
      <root>
        <mxCell id="0" />
        <mxCell id="1" parent="0" />
        <mxCell id="Ks4agTKRWIQxYl3Itglz-84" value="" style="rounded=0;whiteSpace=wrap;html=1;fontFamily=Times New Roman;fontSize=11;strokeColor=default;strokeWidth=2;fillColor=#FFFFFF;" parent="1" vertex="1">
          <mxGeometry x="127.5" y="523.5" width="195" height="21" as="geometry" />
        </mxCell>
        <mxCell id="Ks4agTKRWIQxYl3Itglz-68" value="" style="rounded=0;whiteSpace=wrap;html=1;strokeWidth=2;fillColor=none;fontFamily=Times New Roman;fontSize=11;" parent="1" vertex="1">
          <mxGeometry x="138" y="317" width="200" height="188" as="geometry" />
        </mxCell>
        <mxCell id="Ks4agTKRWIQxYl3Itglz-67" value="" style="rounded=0;whiteSpace=wrap;html=1;strokeWidth=2;fillColor=default;fontFamily=Times New Roman;fontSize=11;" parent="1" vertex="1">
          <mxGeometry x="132" y="323" width="200" height="188" as="geometry" />
        </mxCell>
        <mxCell id="GeLd84h3tjp0JI7DX5PS-5" style="edgeStyle=orthogonalEdgeStyle;rounded=0;orthogonalLoop=1;jettySize=auto;html=1;exitX=0.5;exitY=0;exitDx=0;exitDy=0;entryX=0.25;entryY=1;entryDx=0;entryDy=0;fontSize=12;" edge="1" parent="1" source="Ks4agTKRWIQxYl3Itglz-43" target="GeLd84h3tjp0JI7DX5PS-1">
          <mxGeometry relative="1" as="geometry" />
        </mxCell>
        <mxCell id="Ks4agTKRWIQxYl3Itglz-43" value="" style="rounded=0;whiteSpace=wrap;html=1;strokeWidth=2;fillColor=default;fontFamily=Times New Roman;fontSize=11;" parent="1" vertex="1">
          <mxGeometry x="125" y="330" width="200" height="189" as="geometry" />
        </mxCell>
        <mxCell id="Ks4agTKRWIQxYl3Itglz-34" value="" style="shape=waypoint;sketch=0;size=6;pointerEvents=1;points=[];fillColor=#000000;resizable=0;rotatable=0;perimeter=centerPerimeter;snapToPoint=1;fontFamily=Times New Roman;fontSize=11;" parent="1" vertex="1">
          <mxGeometry x="230" y="435" width="40" height="40" as="geometry" />
        </mxCell>
        <mxCell id="Ks4agTKRWIQxYl3Itglz-35" value="" style="shape=waypoint;sketch=0;size=6;pointerEvents=1;points=[];fillColor=#000000;resizable=0;rotatable=0;perimeter=centerPerimeter;snapToPoint=1;fontFamily=Times New Roman;fontSize=11;" parent="1" vertex="1">
          <mxGeometry x="240" y="435" width="40" height="40" as="geometry" />
        </mxCell>
        <mxCell id="Ks4agTKRWIQxYl3Itglz-36" style="edgeStyle=orthogonalEdgeStyle;rounded=0;orthogonalLoop=1;jettySize=auto;html=1;exitX=0.5;exitY=0;exitDx=0;exitDy=0;entryX=0.5;entryY=1;entryDx=0;entryDy=0;fontFamily=Times New Roman;fontSize=11;" parent="1" source="Ks4agTKRWIQxYl3Itglz-1" target="Ks4agTKRWIQxYl3Itglz-11" edge="1">
          <mxGeometry relative="1" as="geometry" />
        </mxCell>
        <mxCell id="Ks4agTKRWIQxYl3Itglz-1" value="" style="ellipse;whiteSpace=wrap;html=1;aspect=fixed;fillColor=#000000;fontFamily=Times New Roman;fontSize=11;" parent="1" vertex="1">
          <mxGeometry x="150" y="529" width="10" height="10" as="geometry" />
        </mxCell>
        <mxCell id="Ks4agTKRWIQxYl3Itglz-37" style="edgeStyle=orthogonalEdgeStyle;rounded=0;orthogonalLoop=1;jettySize=auto;html=1;exitX=0.5;exitY=0;exitDx=0;exitDy=0;entryX=0.5;entryY=1;entryDx=0;entryDy=0;fontFamily=Times New Roman;fontSize=11;" parent="1" source="Ks4agTKRWIQxYl3Itglz-2" target="Ks4agTKRWIQxYl3Itglz-25" edge="1">
          <mxGeometry relative="1" as="geometry" />
        </mxCell>
        <mxCell id="Ks4agTKRWIQxYl3Itglz-2" value="" style="ellipse;whiteSpace=wrap;html=1;aspect=fixed;fillColor=#000000;fontFamily=Times New Roman;fontSize=11;" parent="1" vertex="1">
          <mxGeometry x="200" y="529" width="10" height="10" as="geometry" />
        </mxCell>
        <mxCell id="Ks4agTKRWIQxYl3Itglz-38" style="edgeStyle=orthogonalEdgeStyle;rounded=0;orthogonalLoop=1;jettySize=auto;html=1;exitX=0;exitY=0;exitDx=0;exitDy=0;entryX=0.5;entryY=1;entryDx=0;entryDy=0;fontFamily=Times New Roman;fontSize=11;" parent="1" source="Ks4agTKRWIQxYl3Itglz-4" target="Ks4agTKRWIQxYl3Itglz-28" edge="1">
          <mxGeometry relative="1" as="geometry" />
        </mxCell>
        <mxCell id="Ks4agTKRWIQxYl3Itglz-4" value="" style="ellipse;whiteSpace=wrap;html=1;aspect=fixed;fillColor=#000000;fontFamily=Times New Roman;fontSize=11;" parent="1" vertex="1">
          <mxGeometry x="290" y="529" width="10" height="10" as="geometry" />
        </mxCell>
        <mxCell id="Ks4agTKRWIQxYl3Itglz-11" value="$$k_0$$" style="rounded=0;whiteSpace=wrap;html=1;fillColor=#FFFFFF;rotation=0;fontFamily=Times New Roman;fontSize=12;" parent="1" vertex="1">
          <mxGeometry x="140" y="470" width="30" height="30" as="geometry" />
        </mxCell>
        <mxCell id="Ks4agTKRWIQxYl3Itglz-12" value="$$q_0$$" style="rounded=0;whiteSpace=wrap;html=1;fillColor=#FFFFFF;rotation=0;fontFamily=Times New Roman;fontSize=12;" parent="1" vertex="1">
          <mxGeometry x="140" y="440" width="30" height="30" as="geometry" />
        </mxCell>
        <mxCell id="Ks4agTKRWIQxYl3Itglz-58" style="edgeStyle=orthogonalEdgeStyle;rounded=0;orthogonalLoop=1;jettySize=auto;html=1;exitX=0.5;exitY=0;exitDx=0;exitDy=0;fontFamily=Times New Roman;fontSize=11;entryX=0.5;entryY=1;entryDx=0;entryDy=0;" parent="1" edge="1">
          <mxGeometry relative="1" as="geometry">
            <mxPoint x="155" y="405" as="sourcePoint" />
            <mxPoint x="225" y="376" as="targetPoint" />
            <Array as="points">
              <mxPoint x="155" y="395" />
              <mxPoint x="225" y="395" />
            </Array>
          </mxGeometry>
        </mxCell>
        <mxCell id="Ks4agTKRWIQxYl3Itglz-13" value="$$v_0$$" style="rounded=0;whiteSpace=wrap;html=1;fillColor=#FFFFFF;rotation=0;fontFamily=Times New Roman;fontSize=12;" parent="1" vertex="1">
          <mxGeometry x="140" y="410" width="30" height="30" as="geometry" />
        </mxCell>
        <mxCell id="Ks4agTKRWIQxYl3Itglz-25" value="$$k_1$$" style="rounded=0;whiteSpace=wrap;html=1;fillColor=#FFFFFF;rotation=0;fontFamily=Times New Roman;fontSize=12;" parent="1" vertex="1">
          <mxGeometry x="190" y="470" width="30" height="30" as="geometry" />
        </mxCell>
        <mxCell id="Ks4agTKRWIQxYl3Itglz-26" value="$$q_1$$" style="rounded=0;whiteSpace=wrap;html=1;fillColor=#FFFFFF;rotation=0;fontFamily=Times New Roman;fontSize=12;" parent="1" vertex="1">
          <mxGeometry x="190" y="440" width="30" height="30" as="geometry" />
        </mxCell>
        <mxCell id="Ks4agTKRWIQxYl3Itglz-64" style="edgeStyle=orthogonalEdgeStyle;rounded=0;orthogonalLoop=1;jettySize=auto;html=1;exitX=0.5;exitY=0;exitDx=0;exitDy=0;entryX=0.5;entryY=1;entryDx=0;entryDy=0;fontFamily=Times New Roman;fontSize=11;" parent="1" edge="1">
          <mxGeometry relative="1" as="geometry">
            <mxPoint x="205" y="415" as="sourcePoint" />
            <mxPoint x="225" y="376" as="targetPoint" />
            <Array as="points">
              <mxPoint x="205" y="395" />
              <mxPoint x="225" y="395" />
            </Array>
          </mxGeometry>
        </mxCell>
        <mxCell id="Ks4agTKRWIQxYl3Itglz-27" value="$$v_1$$" style="rounded=0;whiteSpace=wrap;html=1;fillColor=#FFFFFF;rotation=0;fontFamily=Times New Roman;fontSize=12;" parent="1" vertex="1">
          <mxGeometry x="190" y="410" width="30" height="30" as="geometry" />
        </mxCell>
        <mxCell id="Ks4agTKRWIQxYl3Itglz-28" value="$$k_{L-1}&lt;br style=&quot;font-size: 12px;&quot;&gt;$$" style="rounded=0;whiteSpace=wrap;html=1;fillColor=#FFFFFF;rotation=0;fontFamily=Times New Roman;fontSize=12;" parent="1" vertex="1">
          <mxGeometry x="280" y="470" width="30" height="30" as="geometry" />
        </mxCell>
        <mxCell id="Ks4agTKRWIQxYl3Itglz-29" value="$$q_{L-1}$$" style="rounded=0;whiteSpace=wrap;html=1;fillColor=#FFFFFF;rotation=0;fontFamily=Times New Roman;fontSize=12;" parent="1" vertex="1">
          <mxGeometry x="280" y="440" width="30" height="30" as="geometry" />
        </mxCell>
        <mxCell id="Ks4agTKRWIQxYl3Itglz-65" style="edgeStyle=orthogonalEdgeStyle;rounded=0;orthogonalLoop=1;jettySize=auto;html=1;exitX=0.5;exitY=0;exitDx=0;exitDy=0;entryX=0.5;entryY=1;entryDx=0;entryDy=0;fontFamily=Times New Roman;fontSize=11;" parent="1" edge="1">
          <mxGeometry relative="1" as="geometry">
            <mxPoint x="295" y="409" as="sourcePoint" />
            <mxPoint x="225" y="375" as="targetPoint" />
            <Array as="points">
              <mxPoint x="295" y="395" />
              <mxPoint x="225" y="395" />
            </Array>
          </mxGeometry>
        </mxCell>
        <mxCell id="Ks4agTKRWIQxYl3Itglz-30" value="$$v_{L-1}$$" style="rounded=0;whiteSpace=wrap;html=1;fillColor=#FFFFFF;rotation=0;fontFamily=Times New Roman;fontSize=12;" parent="1" vertex="1">
          <mxGeometry x="280" y="410" width="30" height="30" as="geometry" />
        </mxCell>
        <mxCell id="Ks4agTKRWIQxYl3Itglz-31" value="" style="ellipse;whiteSpace=wrap;html=1;aspect=fixed;fillColor=#000000;fontFamily=Times New Roman;fontSize=11;" parent="1" vertex="1">
          <mxGeometry x="260" y="570" as="geometry" />
        </mxCell>
        <mxCell id="Ks4agTKRWIQxYl3Itglz-32" value="" style="shape=waypoint;sketch=0;size=6;pointerEvents=1;points=[];fillColor=#000000;resizable=0;rotatable=0;perimeter=centerPerimeter;snapToPoint=1;fontFamily=Times New Roman;fontSize=11;" parent="1" vertex="1">
          <mxGeometry x="220" y="435" width="40" height="40" as="geometry" />
        </mxCell>
        <mxCell id="Ks4agTKRWIQxYl3Itglz-54" value="&lt;font style=&quot;font-size: 15px;&quot;&gt;$$\rm{Z} \in \mathbb{R}^{L\times d_k}$$&lt;/font&gt;" style="text;html=1;strokeColor=default;fillColor=none;align=center;verticalAlign=middle;whiteSpace=wrap;rounded=0;fontFamily=Times New Roman;fontSize=15;strokeWidth=2;" parent="1" vertex="1">
          <mxGeometry x="140.5" y="216" width="183" height="30" as="geometry" />
        </mxCell>
        <mxCell id="Ks4agTKRWIQxYl3Itglz-46" value="Scaled dot-product" style="rounded=1;whiteSpace=wrap;html=1;strokeWidth=2;fillColor=default;fontFamily=Times New Roman;fontSize=13;" parent="1" vertex="1">
          <mxGeometry x="160" y="346" width="130" height="30" as="geometry" />
        </mxCell>
        <mxCell id="Ks4agTKRWIQxYl3Itglz-73" value="Concatenate" style="text;html=1;strokeColor=none;fillColor=none;align=center;verticalAlign=middle;whiteSpace=wrap;rounded=0;fontFamily=Times New Roman;fontSize=11;" parent="1" vertex="1">
          <mxGeometry x="157" y="248" width="60" height="30" as="geometry" />
        </mxCell>
        <mxCell id="Ks4agTKRWIQxYl3Itglz-74" value="Self-Attention Heads" style="text;html=1;strokeColor=none;fillColor=none;align=center;verticalAlign=middle;whiteSpace=wrap;rounded=0;fontFamily=Times New Roman;fontSize=13;" parent="1" vertex="1">
          <mxGeometry x="60" y="396" width="60" height="30" as="geometry" />
        </mxCell>
        <mxCell id="Ks4agTKRWIQxYl3Itglz-79" value="" style="shape=curlyBracket;whiteSpace=wrap;html=1;rounded=1;flipH=1;fontFamily=Times New Roman;fontSize=11;strokeColor=default;strokeWidth=2;fillColor=default;rotation=90;" parent="1" vertex="1">
          <mxGeometry x="215.5" y="151" width="30.5" height="205" as="geometry" />
        </mxCell>
        <mxCell id="Ks4agTKRWIQxYl3Itglz-82" value="$$L-1$$" style="text;html=1;strokeColor=none;fillColor=none;align=center;verticalAlign=middle;whiteSpace=wrap;rounded=0;fontFamily=Times New Roman;fontSize=11;" parent="1" vertex="1">
          <mxGeometry x="220" y="426" width="60" height="30" as="geometry" />
        </mxCell>
        <mxCell id="Ks4agTKRWIQxYl3Itglz-83" value="&lt;font style=&quot;font-size: 15px;&quot;&gt;$$\mathrm{X} \in \mathbb{R}^{L\times &lt;br style=&quot;font-size: 15px;&quot;&gt;d_{x}}$$&lt;/font&gt;" style="text;html=1;strokeColor=none;fillColor=none;align=center;verticalAlign=middle;whiteSpace=wrap;rounded=0;fontFamily=Times New Roman;fontSize=15;" parent="1" vertex="1">
          <mxGeometry x="60" y="519" width="60" height="30" as="geometry" />
        </mxCell>
        <mxCell id="Ks4agTKRWIQxYl3Itglz-85" value="Normalize" style="text;html=1;strokeColor=none;fillColor=none;align=center;verticalAlign=middle;whiteSpace=wrap;rounded=0;fontFamily=Times New Roman;fontSize=11;" parent="1" vertex="1">
          <mxGeometry x="249" y="248" width="60" height="30" as="geometry" />
        </mxCell>
        <mxCell id="GeLd84h3tjp0JI7DX5PS-2" value="" style="rounded=0;whiteSpace=wrap;html=1;fontSize=12;strokeWidth=2;" vertex="1" parent="1">
          <mxGeometry x="171" y="279.5" width="130" height="21" as="geometry" />
        </mxCell>
        <mxCell id="GeLd84h3tjp0JI7DX5PS-1" value="&lt;font style=&quot;font-size: 15px&quot;&gt;$$\mathrm{Z}_1,...,\mathrm{Z}_{\# heads}&lt;br&gt;$$&lt;/font&gt;" style="text;html=1;strokeColor=none;fillColor=none;align=center;verticalAlign=middle;whiteSpace=wrap;rounded=0;fontFamily=Times New Roman;fontSize=15;" vertex="1" parent="1">
          <mxGeometry x="214" y="275" width="60" height="30" as="geometry" />
        </mxCell>
      </root>
    </mxGraphModel>
  </diagram>
</mxfile>
